<svg width="26" height="26" viewBox="0 0 26 26" fill="none" xmlns="http://www.w3.org/2000/svg">
<path d="M13 26C10.4288 26 7.91543 25.2376 5.77759 23.8091C3.63975 22.3806 1.97351 20.3503 0.989572 17.9749C0.0056327 15.5994 -0.251811 12.9856 0.249797 10.4638C0.751405 7.94207 1.98953 5.62569 3.80762 3.80761C5.6257 1.98953 7.94208 0.751399 10.4638 0.249792C12.9856 -0.251816 15.5995 0.00562698 17.9749 0.989566C20.3503 1.97351 22.3807 3.63975 23.8091 5.77759C25.2376 7.91543 26 10.4288 26 13C26 16.4478 24.6304 19.7544 22.1924 22.1924C19.7544 24.6304 16.4478 26 13 26ZM13 2C10.8244 2 8.69767 2.64514 6.88873 3.85383C5.07979 5.06253 3.66989 6.7805 2.83733 8.79048C2.00477 10.8005 1.78693 13.0122 2.21137 15.146C2.63581 17.2798 3.68345 19.2398 5.22183 20.7782C6.76021 22.3166 8.72022 23.3642 10.854 23.7886C12.9878 24.2131 15.1995 23.9952 17.2095 23.1627C19.2195 22.3301 20.9375 20.9202 22.1462 19.1113C23.3549 17.3023 24 15.1756 24 13C24 10.0826 22.8411 7.28473 20.7782 5.22183C18.7153 3.15893 15.9174 2 13 2Z" fill="#331D2C"/>
<path d="M8.76001 18.24C8.6284 18.2408 8.49794 18.2155 8.3761 18.1658C8.25426 18.116 8.14345 18.0427 8.05001 17.95C7.86376 17.7626 7.75922 17.5092 7.75922 17.245C7.75922 16.9808 7.86376 16.7274 8.05001 16.54L16.54 8.05C16.6326 7.95414 16.7431 7.87745 16.8654 7.82431C16.9876 7.77117 17.1191 7.74262 17.2523 7.7403C17.3856 7.73798 17.518 7.76193 17.642 7.81078C17.766 7.85962 17.8791 7.93242 17.975 8.025C18.0709 8.11758 18.1476 8.22814 18.2007 8.35036C18.2538 8.47258 18.2824 8.60407 18.2847 8.73732C18.287 8.87057 18.2631 9.00298 18.2142 9.12698C18.1654 9.25097 18.0926 9.36414 18 9.46L9.46001 18C9.26595 18.1666 9.01545 18.2525 8.76001 18.24Z" fill="#331D2C"/>
<path d="M17.24 18.24C16.9777 18.2389 16.7263 18.1347 16.54 17.95L8.05001 9.46C7.88619 9.2687 7.80058 9.02262 7.8103 8.77095C7.82002 8.51927 7.92435 8.28053 8.10245 8.10244C8.28054 7.92434 8.51928 7.82001 8.77096 7.81029C9.02263 7.80057 9.26871 7.88617 9.46001 8.05L18 16.54C18.0999 16.6335 18.1796 16.7466 18.234 16.8722C18.2885 16.9977 18.3166 17.1331 18.3166 17.27C18.3166 17.4069 18.2885 17.5423 18.234 17.6678C18.1796 17.7934 18.0999 17.9065 18 18C17.8966 18.09 17.7757 18.1577 17.645 18.199C17.5142 18.2403 17.3764 18.2542 17.24 18.24Z" fill="#331D2C"/>
</svg>
