<svg width="22" height="24" viewBox="0 0 22 24" fill="none" xmlns="http://www.w3.org/2000/svg">
<g clip-path="url(#clip0_22_823)">
<path d="M21.5 4.50079H19.9615V21.7501C19.9615 22.0626 19.9014 22.3555 19.7812 22.629C19.6611 22.9024 19.4968 23.1407 19.2885 23.3438C19.0801 23.5469 18.8357 23.707 18.5553 23.8242C18.2748 23.9414 17.9744 24 17.6538 24H5.34615C5.02564 24 4.72516 23.9414 4.44471 23.8242C4.16426 23.707 3.91987 23.5469 3.71154 23.3438C3.50321 23.1407 3.33894 22.9024 3.21875 22.629C3.09856 22.3555 3.03846 22.0626 3.03846 21.7501V4.50079H1.5V3.00085H7.65385V1.50092C7.65385 1.28999 7.69391 1.09468 7.77404 0.915002C7.85417 0.735322 7.96234 0.579078 8.09856 0.446271C8.23478 0.313464 8.39904 0.204093 8.59135 0.118159C8.78365 0.0322252 8.98397 -0.00683566 9.19231 0.000976523H13.8077C14.024 0.000976523 14.2244 0.0400374 14.4087 0.118159C14.5929 0.196281 14.7532 0.301746 14.8894 0.434553C15.0256 0.56736 15.1378 0.72751 15.226 0.915002C15.3141 1.10249 15.3542 1.2978 15.3462 1.50092V3.00085H21.5V4.50079ZM9.19231 3.00085H13.8077V1.50092H9.19231V3.00085ZM18.4231 4.50079H4.57692V21.7501C4.57692 21.9532 4.65304 22.129 4.80529 22.2774C4.95753 22.4258 5.13782 22.5001 5.34615 22.5001H17.6538C17.8622 22.5001 18.0425 22.4258 18.1947 22.2774C18.347 22.129 18.4231 21.9532 18.4231 21.7501V4.50079ZM9.19231 19.5002H7.65385V7.50067H9.19231V19.5002ZM12.2692 19.5002H10.7308V7.50067H12.2692V19.5002ZM15.3462 19.5002H13.8077V7.50067H15.3462V19.5002Z" fill="#5D0010" stroke="#5D0010" stroke-width="0.5"/>
</g>
<defs>
<clipPath id="clip0_22_823">
<rect width="21" height="24" fill="white" transform="translate(0.5)"/>
</clipPath>
</defs>
</svg>
