<svg width="44" height="44" viewBox="0 0 44 44" fill="none" xmlns="http://www.w3.org/2000/svg">
<path d="M0.799988 44L4.49998 29.1L27.2 6.39999L38.4 17.6L15.7 40.3L0.799988 44ZM7.09999 30.5L4.69998 40.1L14.3 37.7L34.5 17.5L27.3 10.3L7.09999 30.5Z" fill="#331D2C"/>
<path d="M13.3 39.4C12.3 35.5 9.29996 32.5 5.39996 31.5L6.09998 28.7C11 29.9 14.8 33.7 16 38.6L13.3 39.4Z" fill="#331D2C"/>
<path d="M13 33.9L11 31.8L30.9 11.9L32.9 13.9L13 33.9Z" fill="#331D2C"/>
<path d="M2.79999 42L7.19998 40.9C6.79998 39.3 5.49998 38 3.89998 37.6L2.79999 42Z" fill="#331D2C"/>
<path d="M39.5 16.5L28.3 5.29999L32.8 0.799988L33.5 0.899994C38.9 1.59999 43.2 5.89999 43.9 11.3L44 12L39.5 16.5ZM32.4 5.29999L39.6 12.5L41 11.1C40.2 7.50001 37.4 4.69999 33.8 3.89999L32.4 5.29999Z" fill="#331D2C"/>
</svg>
