<svg width="150" height="150" viewBox="0 0 150 150" fill="none" xmlns="http://www.w3.org/2000/svg">
<g clip-path="url(#clip0_3_53)">
<path d="M75 150C116.421 150 150 116.421 150 75C150 33.5786 116.421 0 75 0C33.5786 0 0 33.5786 0 75C0 116.421 33.5786 150 75 150Z" fill="url(#paint0_linear_3_53)"/>
<path d="M75 137.5C40.5378 137.5 12.5 109.462 12.5 75.0002C12.5 40.538 40.5378 12.5002 75 12.5002C109.464 12.5002 137.5 40.538 137.5 75.0002C137.5 109.462 109.464 137.5 75 137.5Z" fill="url(#paint1_linear_3_53)"/>
<path opacity="0.3" d="M99.4322 42.1875H96.733V66.5619H57.9545V42.1875H42.1875V112.5H53.7317V76.3831H100.956V112.5H112.5V53.598L99.4322 42.1875Z" fill="#331D2C"/>
<path opacity="0.3" d="M93.8033 42.1875H60.8842V63.6322H93.8033V42.1875ZM88.9659 59.6947H86.0363V49.2741H88.9659V59.6947Z" fill="#331D2C"/>
<path opacity="0.3" d="M56.6614 112.5H98.0261V79.3128H56.6614V112.5ZM62.1323 85.2802H92.555V88.2098H62.1323V85.2802ZM62.1323 93.7444H92.555V96.6741H62.1323V93.7444ZM62.1323 102.21H92.555V105.139H62.1323V102.21Z" fill="#331D2C"/>
<path d="M97.0884 39.8438H94.3892V64.2181H55.6108V39.8438H39.8438V110.156H51.388V74.0394H98.612V110.156H110.156V51.2542L97.0884 39.8438Z" fill="white"/>
<path d="M91.4595 39.8438H58.5405V61.2884H91.4595V39.8438ZM86.6222 57.3509H83.6925V46.9303H86.6222V57.3509Z" fill="white"/>
<path d="M54.3177 110.156H95.6823V76.9691H54.3177V110.156ZM59.7886 82.9364H90.2112V85.8661H59.7886V82.9364ZM59.7886 91.4006H90.2112V94.3303H59.7886V91.4006ZM59.7886 99.8658H90.2112V102.795H59.7886V99.8658Z" fill="white"/>
</g>
<defs>
<linearGradient id="paint0_linear_3_53" x1="2.43164e-06" y1="75" x2="150" y2="75" gradientUnits="userSpaceOnUse">
<stop stop-color="#331D2C"/>
<stop offset="1" stop-color="#331D2C"/>
</linearGradient>
<linearGradient id="paint1_linear_3_53" x1="12.5" y1="75.0002" x2="137.5" y2="75.0002" gradientUnits="userSpaceOnUse">
<stop stop-color="#331D2C"/>
<stop offset="1" stop-color="#331D2C"/>
</linearGradient>
<clipPath id="clip0_3_53">
<rect width="150" height="150" fill="white"/>
</clipPath>
</defs>
</svg>
